<svg width="326" height="306" xmlns="http://www.w3.org/2000/svg">
 <metadata id="metadata8">image/svg+xml</metadata>
 <defs>
  <clipPath clipPathUnits="userSpaceOnUse" id="clipPath20">
   <path d="m-138,665.5l520,0l0,-520l-520,0l0,520z" id="path18"/>
  </clipPath>
 </defs>
 <g>
  <g id="g10" transform="matrix(1.3333333,0,0,-1.3333333,0,693.33333) ">
   <g id="g14">
    <g id="g16" clip-path="url(#clipPath20)">
     <g id="g22">
      <path fill="#48c0d8" fill-rule="nonzero" d="m228.19489,338.0488l-66.136,0l-15.875,-27.679c-1.372,-2.392 -4.793,-2.474 -6.278,-0.15l-13.504,28.033l-65.425,-0.204c-7.403,0 -13.46,6.057 -13.46,13.46l0,99.511c0,7.403 6.057,13.46 13.46,13.46l167.218,0c7.403,0 13.46,-6.057 13.46,-13.46l0,-99.511c0,-7.403 -6.057,-13.46 -13.46,-13.46" id="path24"/>
     </g>
     <g id="g26">
      <path fill="#ffffff" fill-rule="nonzero" d="m188.1358,383.2355l-66.136,0l-15.875,-27.679c-1.372,-2.392 -4.793,-2.474 -6.278,-0.15l-13.504,28.033l-65.425,-0.204c-7.403,0 -13.46,6.057 -13.46,13.46l0,99.511c0,7.403 6.057,13.46 13.46,13.46l167.218,0c7.403,0 13.46,-6.057 13.46,-13.46l0,-99.511c0,-7.403 -6.057,-13.46 -13.46,-13.46" id="path28"/>
     </g>
     <g id="g30">
      <path fill="#ffd55e" fill-rule="nonzero" d="m193.2634,390.9268l-66.136,0l-15.875,-27.679c-1.372,-2.392 -4.793,-2.474 -6.278,-0.15l-13.504,28.033l-65.425,-0.204c-7.403,0 -13.46,6.057 -13.46,13.46l0,99.511c0,7.403 6.057,13.46 13.46,13.46l167.218,0c7.403,0 13.46,-6.057 13.46,-13.46l0,-99.511c0,-7.403 -6.057,-13.46 -13.46,-13.46" id="path32"/>
     </g>
     <g id="g34">
      <path fill="#333333" fill-rule="nonzero" d="m236.54221,347.1396c0,-7.398 -6.019,-13.416 -13.416,-13.416l-61.539,0c-1.434,0 -2.763,-0.758 -3.494,-1.992l-17.202,-29.053l-17.201,29.053c-0.731,1.234 -2.06,1.992 -3.495,1.992l-61.538,0c-7.398,0 -13.416,6.018 -13.416,13.416l0,31.21l34.856,0l19.517,-32.962c0.731,-1.234 2.059,-1.991 3.494,-1.991c1.435,0 2.763,0.757 3.494,1.991l19.516,32.962l59.224,0c11.876,0 21.538,9.662 21.538,21.538l0,59.595l16.246,0c7.397,0 13.416,-6.018 13.416,-13.416l0,-98.927zm-229.084,52.748l0,98.926c0,7.398 6.018,13.417 13.416,13.417l164.468,0c7.398,0 13.416,-6.019 13.416,-13.417l0,-98.926c0,-7.398 -6.018,-13.417 -13.416,-13.417l-61.538,0c-1.435,0 -2.763,-0.757 -3.495,-1.991l-17.201,-29.053l-17.202,29.053c-0.731,1.234 -2.059,1.991 -3.494,1.991l-61.538,0c-7.398,0 -13.416,6.019 -13.416,13.417m215.668,67.716l-16.246,0l0,31.21c0,11.876 -9.662,21.538 -21.538,21.538l-164.468,0c-11.876,0 -21.538,-9.662 -21.538,-21.538l0,-98.926c0,-11.876 9.662,-21.538 21.538,-21.538l16.245,0l0,-31.21c0,-11.876 9.662,-21.538 21.538,-21.538l59.224,0l19.515,-32.961c0.732,-1.235 2.061,-1.992 3.495,-1.992c1.435,0 2.763,0.757 3.494,1.992l19.517,32.961l59.224,0c11.875,0 21.537,9.662 21.537,21.538l0,98.927c0,11.876 -9.662,21.537 -21.537,21.537" id="path36"/>
     </g>
    </g>
   </g>
  </g>
 </g>
</svg>